# xmcd
#
# Track frame offsets: 
#        183
#        9918
#        21773
#        31148
#        42805
#        56275
#        67865
#        79725
#        94895
#        107423
#        122775
#        136630
#        145518
#        160405
#        173335
#        184170
#        196058
#        210123
#        220858
#        234300
#        245408
#        258080
#        270903
#
# Disc length: 3860 seconds
#
# Revision: 1
# Processed by: cddbd v1.5.2PL0 Copyright (c) Steve Scherf et al.
# Submitted via: ExactAudioCopyFreeDBPlugin 1.0
#
DISCID=100f1217
DTITLE=Bobby Womack - My Prescription
DYEAR=1970
DGENRE=Southern Soul
TTITLE0=Fly Me To The Moon
TTITLE1=Baby! You Oughta Think It Over
TTITLE2=I'm A Midnight Mover
TTITLE3=What Is This
TTITLE4=Somebody Special
TTITLE5=Take Me
TTITLE6=Moonlight In Vermont
TTITLE7=Love, The Time Is Now
TTITLE8=I'm In Love
TTITLE9=California Dreamin'
TTITLE10=No Money In My Pocket
TTITLE11=Lillie Mae
TTITLE12=How I Miss You Baby
TTITLE13=More Than I Can Stand
TTITLE14=It's Gonna Rain
TTITLE15=Everyone's Gone To The Moon
TTITLE16=I Can't Take It Like A Man
TTITLE17=I Left My Heart In San Francisico
TTITLE18=Arkansas State Prison
TTITLE19=I'm Gonna Forget About You
TTITLE20=Don't Look Back
TTITLE21=Tried And Convicted
TTITLE22=Thank You
EXTD=
EXTT0=
EXTT1=
EXTT2=
EXTT3=
EXTT4=
EXTT5=
EXTT6=
EXTT7=
EXTT8=
EXTT9=
EXTT10=
EXTT11=
EXTT12=
EXTT13=
EXTT14=
EXTT15=
EXTT16=
EXTT17=
EXTT18=
EXTT19=
EXTT20=
EXTT21=
EXTT22=
PLAYORDER=
